# xmcd
#
# Track frame offsets:
#	150
#	12645
#	26442
#	42507
#	57787
#	75945
#	93855
#	109220
#	128547
#	141872
#	156042
#	171115
#
# Disc length: 2461 seconds
#
# Revision: 0
# Processed by: cddbd v1.5.1PL0 Copyright (c) Steve Scherf et al.
# Submitted via: CDDB.pm 1.12
#
DISCID=8d099b0c
DTITLE=Toby Keith - Pull Chain
DYEAR=1900
DGENRE=
TTITLE0=I'm Just Talking About Tonight
TTITLE1=I Wanna Talk About Me
TTITLE2=Can't Take You Anywhere
TTITLE3=You Leave Me Weak
TTITLE4=Trying To Matter
TTITLE5=Pull My Chain
TTITLE6=The Sha La La Song
TTITLE7=Pick 'Em Up And Lay 'Em Down
TTITLE8=Forever Hasn't Got Here Yet
TTITLE9=Yesterday's Rain
TTITLE10=My List
TTITLE11=Gimme 8 Seconds
EXTD=
EXTT0=
EXTT1=
EXTT2=
EXTT3=
EXTT4=
EXTT5=
EXTT6=
EXTT7=
EXTT8=
EXTT9=
EXTT10=
EXTT11=
PLAYORDER=
